<?xml version="1.0" standalone="no"?>
<!DOCTYPE svg PUBLIC "-//W3C//DTD SVG 20010904//EN"
 "http://www.w3.org/TR/2001/REC-SVG-20010904/DTD/svg10.dtd">
<svg version="1.0" xmlns="http://www.w3.org/2000/svg"
 width="293.000000pt" height="293.000000pt" viewBox="0 0 293.000000 293.000000"
 preserveAspectRatio="xMidYMid meet">
<metadata>
Created by potrace 1.14, written by Peter Selinger 2001-2017
</metadata>
<g transform="translate(0.000000,293.000000) scale(0.100000,-0.100000)"
fill="#000000" stroke="none">
<path d="M1335 2283 c-81 -16 -80 -16 -120 -32 -213 -83 -356 -277 -398 -542
-16 -101 -15 -367 3 -459 25 -136 67 -233 143 -328 122 -155 297 -231 535
-233 237 -2 480 77 596 195 19 18 20 37 20 333 1 173 -1 318 -4 322 -8 12
-629 8 -633 -3 -2 -6 -3 -65 -3 -131 l1 -120 128 1 c70 0 128 -2 128 -5 5 -18
4 -233 0 -240 -4 -4 -26 -19 -51 -32 -39 -20 -59 -23 -155 -23 -81 0 -120 4
-146 17 -140 63 -193 203 -192 497 2 192 16 273 64 359 61 107 123 145 238
144 145 -1 217 -57 251 -195 l12 -45 179 0 c208 1 193 -10 159 121 -56 218
-202 352 -435 397 -84 17 -244 17 -320 2z"/>
</g>
</svg>
