<svg width="341" height="341" viewBox="0 0 341 341" fill="none" xmlns="http://www.w3.org/2000/svg">
<path d="M311.368 142.61C278.124 85.6807 187.96 105.957 169.542 78.2639C160.112 64.0852 149.562 47.6497 134.261 39.1028C119.673 30.955 102.76 28.0476 88.0133 29.1272C35.3582 32.9812 13.0315 80.0938 23.1504 131.83C36.6485 200.843 97.8266 271.339 170.506 271.833C208.517 272.09 244.808 258.504 273.275 239.294C273.489 239.151 273.701 239.007 273.913 238.863C302.352 219.504 336.749 186.074 311.368 142.61Z" fill="#865DC5"/>
<g opacity="0.699997">
<g opacity="0.699997">
<path opacity="0.699997" d="M311.368 142.61C278.124 85.6807 187.96 105.957 169.542 78.2639C160.112 64.0852 149.562 47.6497 134.261 39.1028C119.673 30.955 102.76 28.0476 88.0133 29.1272C35.3582 32.9812 13.0315 80.0938 23.1504 131.83C36.6485 200.843 97.8266 271.339 170.506 271.833C208.517 272.09 244.808 258.504 273.275 239.294C273.489 239.151 273.701 239.007 273.913 238.863C302.352 219.504 336.749 186.074 311.368 142.61Z" fill="white"/>
</g>
</g>
<path d="M53.3249 146.752H49.6292C41.3681 146.752 34.6715 153.449 34.6715 161.71V243.783C34.6715 252.043 41.3681 258.741 49.6292 258.741H100.343C108.604 258.741 115.3 252.043 115.3 243.783" stroke="#1A2E35" stroke-width="1.47067" stroke-miterlimit="10" stroke-linecap="round" stroke-linejoin="round" stroke-dasharray="5.88 5.88"/>
<path d="M111.142 69.311V53.0992C111.142 48.0401 115.243 43.9385 120.302 43.9385H186.252C191.311 43.9385 195.413 48.0401 195.413 53.0992" stroke="#1A2E35" stroke-width="1.47067" stroke-miterlimit="10" stroke-linecap="round" stroke-linejoin="round" stroke-dasharray="5.88 5.88"/>
<path d="M301.118 303.762C301.118 313.842 242.638 322.015 170.5 322.015C98.3618 322.015 39.8824 313.842 39.8824 303.762C39.8824 293.681 98.3618 285.509 170.5 285.509C242.638 285.509 301.118 293.681 301.118 303.762Z" fill="#865DC5"/>
<g opacity="0.5">
<g opacity="0.5">
<path opacity="0.5" d="M301.118 303.762C301.118 313.842 242.638 322.015 170.5 322.015C98.3618 322.015 39.8824 313.842 39.8824 303.762C39.8824 293.681 98.3618 285.509 170.5 285.509C242.638 285.509 301.118 293.681 301.118 303.762Z" fill="white"/>
</g>
</g>
<path d="M293.628 91.0637V213.865C293.628 222.222 286.85 229.002 278.492 229.002H62.5087C54.1501 229.002 47.3718 222.222 47.3718 213.865V91.0637C47.3718 90.7022 47.3868 90.3489 47.4168 89.9957C47.959 82.1336 54.5116 75.9192 62.5087 75.9192H278.492C286.488 75.9192 293.042 82.1336 293.583 89.9957C293.613 90.3489 293.628 90.7022 293.628 91.0637Z" fill="white"/>
<path d="M293.628 91.0637V213.865C293.628 222.222 286.85 229.002 278.492 229.002H62.5087C54.1501 229.002 47.3718 222.222 47.3718 213.865V91.0637C47.3718 90.7022 47.3868 90.3489 47.4168 89.9957C47.959 82.1336 54.5116 75.9192 62.5087 75.9192H278.492C286.488 75.9192 293.042 82.1336 293.583 89.9957C293.613 90.3489 293.628 90.7022 293.628 91.0637Z" stroke="#1A2E35" stroke-width="1.47067" stroke-miterlimit="10" stroke-linecap="round" stroke-linejoin="round"/>
<path d="M272.849 223.292H68.9231C61.0883 223.292 54.7368 216.94 54.7368 209.106V95.6684H287.034V209.106C287.034 216.94 280.683 223.292 272.849 223.292Z" fill="#1A2E35"/>
<g opacity="0.199997">
<g opacity="0.199997">
<path opacity="0.199997" d="M287.038 95.6678V209.11C287.038 216.941 280.753 223.291 273.01 223.291H68.7654C61.0226 223.291 54.7373 216.941 54.7373 209.11V95.6678H287.038Z" fill="white"/>
</g>
</g>
<path d="M293.583 89.9954H47.4172C47.9587 82.1333 54.5113 75.9196 62.5085 75.9196H278.492C286.489 75.9196 293.042 82.1333 293.583 89.9954Z" fill="#865DC5"/>
<path d="M293.583 89.9954H47.4172C47.9587 82.1333 54.5113 75.9196 62.5085 75.9196H278.492C286.489 75.9196 293.042 82.1333 293.583 89.9954Z" stroke="#1A2E35" stroke-width="1.47067" stroke-miterlimit="10"/>
<path d="M77.6671 82.9573C77.6671 84.4379 76.4668 85.6389 74.9861 85.6389C73.5048 85.6389 72.3045 84.4379 72.3045 82.9573C72.3045 81.4767 73.5048 80.2763 74.9861 80.2763C76.4668 80.2763 77.6671 81.4767 77.6671 82.9573Z" fill="#1A2E35"/>
<path d="M89.0033 82.9573C89.0033 84.4379 87.803 85.6389 86.3224 85.6389C84.8411 85.6389 83.6414 84.4379 83.6414 82.9573C83.6414 81.4767 84.8411 80.2763 86.3224 80.2763C87.803 80.2763 89.0033 81.4767 89.0033 82.9573Z" fill="#1A2E35"/>
<path d="M100.34 82.9573C100.34 84.4379 99.1396 85.6389 97.659 85.6389C96.1777 85.6389 94.9774 84.4379 94.9774 82.9573C94.9774 81.4767 96.1777 80.2763 97.659 80.2763C99.1396 80.2763 100.34 81.4767 100.34 82.9573Z" fill="#1A2E35"/>
<path d="M287.034 95.6721V209.107C287.034 216.939 280.684 223.295 272.845 223.295H68.9223C62.0307 223.295 56.291 218.375 55.0115 211.86L55.0041 211.853V211.822C54.8308 210.942 54.7408 210.032 54.7408 209.107V95.6721H287.034Z" stroke="#1A2E35" stroke-width="1.47067" stroke-miterlimit="10"/>
<path d="M279.697 132.966C275.83 132.966 272.7 129.836 272.7 125.969C272.7 122.11 275.83 118.972 279.697 118.972C283.564 118.972 286.694 122.11 286.694 125.969C286.694 129.836 283.564 132.966 279.697 132.966ZM286.814 113.217C285.82 112.661 284.76 112.224 283.661 111.916L282.39 106.221H276.973L275.71 111.916C274.603 112.217 273.543 112.661 272.55 113.217L267.66 110.088L263.831 113.917L266.908 118.807C266.343 119.808 265.907 120.868 265.606 121.967L259.91 123.231V128.647L265.606 129.919C265.907 131.032 266.343 132.1 266.908 133.101L263.778 138.021L267.607 141.851L272.527 138.721C273.52 139.285 274.581 139.722 275.687 140.03L276.952 145.718H282.368L283.639 140.03C284.738 139.722 285.798 139.278 286.791 138.721L287.04 138.879V113.075L286.814 113.217Z" fill="#1A2E35"/>
<path d="M147.618 127.746C139.471 127.746 132.865 121.141 132.865 112.993C132.865 104.846 139.471 98.2404 147.618 98.2404C155.766 98.2404 162.371 104.846 162.371 112.993C162.371 121.141 155.766 127.746 147.618 127.746ZM189.222 118.704V107.284L177.214 104.62C176.56 102.303 175.642 100.061 174.469 97.9546L175.921 95.6679H119.249L120.648 97.8946C119.467 99.9938 118.549 102.228 117.909 104.552L105.902 107.224V118.643L117.909 121.322C118.549 123.661 119.467 125.919 120.648 128.032L114.05 138.407L122.129 146.479L132.496 139.881C134.603 141.062 136.837 141.988 139.162 142.643L141.825 154.634H153.246L155.931 142.643C158.249 141.988 160.475 141.055 162.575 139.881L172.949 146.479L181.021 138.407L174.469 128.032C175.634 125.926 176.56 123.699 177.214 121.382L189.222 118.704Z" fill="#1A2E35"/>
<path d="M89.4153 182.971C85.0818 178.156 77.6644 177.765 72.8488 182.099C68.0339 186.432 67.6431 193.85 71.9765 198.665C76.31 203.479 83.7274 203.863 88.5423 199.529C93.3572 195.197 93.7487 187.786 89.4153 182.971ZM113.474 197.122L113.956 188.064L104.567 185.416C104.131 183.558 103.484 181.745 102.641 180.03L108.313 172.063L102.235 165.314L93.7337 170.122C92.1085 169.106 90.3783 168.271 88.5573 167.647L86.9321 158.017L77.8745 157.535L75.2563 166.954C73.3903 167.368 71.5851 168.015 69.8698 168.865L61.9102 163.193L55.1543 169.272L59.9692 177.78C58.9312 179.398 58.1033 181.128 57.4868 182.949L54.741 183.4V195.67L56.7345 196.235C57.156 198.107 57.8025 199.921 58.6605 201.636L54.741 207.121L55.0043 211.822V211.853L55.0118 211.86L59.0519 216.344L67.5681 211.537C69.1926 212.582 70.9385 213.424 72.7588 214.042L74.309 223.288V223.296L74.384 223.679L83.4416 224.161L83.6824 223.296V223.288L86.0598 214.741C87.9408 214.321 89.746 213.681 91.4763 212.83L99.4209 218.496L106.177 212.425L101.377 203.908C102.401 202.291 103.228 200.561 103.829 198.747L113.474 197.122Z" fill="#1A2E35"/>
<path d="M170.315 187.601C165.601 188.883 160.744 186.101 159.465 181.396C158.182 176.682 160.966 171.825 165.669 170.547C170.383 169.264 175.24 172.047 176.519 176.751C177.802 181.465 175.019 186.322 170.315 187.601ZM185.914 183.587C186.266 182.186 186.448 180.744 186.464 179.297L192.975 175.874L191.176 169.266L183.826 169.61C183.082 168.371 182.193 167.222 181.185 166.197L183.363 159.166L177.427 155.766L172.461 161.184C171.064 160.842 169.63 160.662 168.185 160.639L164.747 154.122L158.15 155.917L158.498 163.277C157.259 164.021 156.11 164.91 155.079 165.916L148.044 163.745L144.64 169.671L150.087 174.624C149.735 176.025 149.556 177.459 149.55 178.902L143.026 182.337L144.825 188.944L152.185 188.596C152.919 189.839 153.801 190.986 154.816 192.013L152.628 199.008L158.564 202.409L163.503 197.037C164.906 197.389 166.34 197.568 167.789 197.577L171.217 204.098L177.815 202.304L177.525 196.017L177.476 194.94C178.729 194.201 179.886 193.314 180.929 192.298L187.959 194.483L190.862 189.405L191.359 188.547L185.914 183.587Z" fill="#1A2E35"/>
<path d="M235.985 194.801C230.652 198.615 223.234 197.388 219.42 192.055C215.598 186.728 216.831 179.311 222.158 175.496C227.492 171.674 234.91 172.908 238.724 178.234C242.545 183.568 241.312 190.986 235.985 194.801ZM261.421 195.207L262.926 186.142L253.748 182.448C253.537 180.514 253.093 178.618 252.431 176.791L259.037 169.433L253.687 161.954L244.577 165.821C243.065 164.61 241.417 163.587 239.657 162.767L239.123 152.882L230.05 151.384L226.334 160.525C224.407 160.751 222.519 161.195 220.698 161.849L213.318 155.244L205.848 160.593L209.722 169.696C208.654 171.035 207.728 172.464 206.961 173.984C206.856 174.194 206.751 174.406 206.652 174.616L196.775 175.165L195.27 184.223L196.759 184.825L204.448 187.924C204.659 189.843 205.095 191.739 205.765 193.56L199.159 200.94L204.509 208.41L213.619 204.528C215.124 205.754 216.779 206.785 218.532 207.605L219.043 217.445L228.109 218.942L231.818 209.87C233.751 209.659 235.647 209.215 237.468 208.545L244.833 215.159L252.31 209.802L248.437 200.691C249.67 199.179 250.716 197.516 251.543 195.749L261.421 195.207Z" fill="#1A2E35"/>
<path d="M138.498 244.691H67.1765C62.2381 244.691 58.2354 240.688 58.2354 235.75V137C58.2354 132.062 62.2381 128.059 67.1765 128.059H138.498C143.436 128.059 147.439 132.062 147.439 137V235.75C147.439 240.688 143.436 244.691 138.498 244.691Z" fill="#865DC5"/>
<path d="M138.498 244.691H67.1765C62.2381 244.691 58.2354 240.688 58.2354 235.75V137C58.2354 132.062 62.2381 128.059 67.1765 128.059H138.498C143.436 128.059 147.439 132.062 147.439 137V235.75C147.439 240.688 143.436 244.691 138.498 244.691Z" stroke="#1A2E35" stroke-width="1.47067" stroke-miterlimit="10"/>
<g opacity="0.199997">
<g opacity="0.199997">
<path opacity="0.199997" d="M138.498 244.691H67.1765C62.2381 244.691 58.2354 240.688 58.2354 235.75V137C58.2354 132.062 62.2381 128.059 67.1765 128.059H138.498C143.436 128.059 147.439 132.062 147.439 137V235.75C147.439 240.688 143.436 244.691 138.498 244.691Z" fill="black"/>
</g>
</g>
<path d="M155.743 145.81V244.559C155.743 249.501 151.74 253.503 146.798 253.503H75.4782C70.5425 253.503 66.5406 249.501 66.5406 244.559V145.81C66.5406 140.875 70.5425 136.872 75.4782 136.872H146.798C151.74 136.872 155.743 140.875 155.743 145.81Z" fill="white"/>
<path d="M155.743 145.81V244.559C155.743 249.501 151.74 253.503 146.798 253.503H75.4782C70.5425 253.503 66.5406 249.501 66.5406 244.559V145.81C66.5406 140.875 70.5425 136.872 75.4782 136.872H146.798C151.74 136.872 155.743 140.875 155.743 145.81Z" stroke="#1A2E35" stroke-width="1.47067" stroke-miterlimit="10" stroke-linecap="round" stroke-linejoin="round"/>
<path d="M155.743 145.809V151.098H66.5406V145.809C66.5406 140.875 70.5425 136.872 75.4782 136.872H146.798C151.74 136.872 155.743 140.875 155.743 145.809Z" fill="#865DC5"/>
<path d="M155.743 145.809V151.098H66.5406V145.809C66.5406 140.875 70.5425 136.872 75.4782 136.872H146.798C151.74 136.872 155.743 140.875 155.743 145.809Z" stroke="#1A2E35" stroke-width="1.47067" stroke-miterlimit="10"/>
<path d="M96.8747 160.905H74.9293V157.224H96.8747V160.905Z" fill="#865DC5"/>
<path d="M96.8747 193.906H74.9293V190.225H96.8747V193.906Z" fill="#865DC5"/>
<path d="M96.8747 223.832H74.9293V220.151H96.8747V223.832Z" fill="#865DC5"/>
<path d="M137.258 169.037H74.9286V166.337H137.258V169.037Z" fill="#1A2E35"/>
<path d="M126.019 174.136H74.9286V171.505H126.019V174.136Z" fill="#1A2E35"/>
<path d="M132.71 179.215H74.9286V176.585H132.71V179.215Z" fill="#1A2E35"/>
<path d="M132.71 184.291H74.9286V181.66H132.71V184.291Z" fill="#1A2E35"/>
<path d="M137.258 198.963H74.9286V196.263H137.258V198.963Z" fill="#1A2E35"/>
<path d="M126.019 204.062H74.9286V201.431H126.019V204.062Z" fill="#1A2E35"/>
<path d="M132.71 209.141H74.9286V206.511H132.71V209.141Z" fill="#1A2E35"/>
<path d="M137.258 231.826H74.9286V229.126H137.258V231.826Z" fill="#1A2E35"/>
<path d="M126.019 236.924H74.9286V234.294H126.019V236.924Z" fill="#1A2E35"/>
<path d="M132.71 242.005H74.9286V239.374H132.71V242.005Z" fill="#1A2E35"/>
<path d="M256.271 68.4004V108.311C256.271 114.201 251.502 118.971 245.611 118.971H153.686C147.803 118.971 143.025 114.201 143.025 108.311V68.4004C143.025 62.51 147.803 57.7326 153.686 57.7326H245.611C251.502 57.7326 256.271 62.51 256.271 68.4004Z" fill="white"/>
<path d="M256.271 68.4004V108.311C256.271 114.201 251.502 118.971 245.611 118.971H153.686C147.803 118.971 143.025 114.201 143.025 108.311V68.4004C143.025 62.51 147.803 57.7326 153.686 57.7326H245.611C251.502 57.7326 256.271 62.51 256.271 68.4004Z" stroke="#1C1C1B" stroke-width="1.47067" stroke-miterlimit="10"/>
<path d="M256.271 68.4005V69.3109H143.025V68.4005C143.025 62.51 147.803 57.7326 153.686 57.7326H245.611C251.502 57.7326 256.271 62.51 256.271 68.4005Z" fill="#865DC5"/>
<path d="M256.271 68.4005V69.3109H143.025V68.4005C143.025 62.51 147.803 57.7326 153.686 57.7326H245.611C251.502 57.7326 256.271 62.51 256.271 68.4005Z" stroke="#1A2E35" stroke-width="1.47067" stroke-miterlimit="10"/>
<path d="M159.662 65.4287C159.025 66.0664 157.991 66.0664 157.353 65.4287C156.715 64.791 156.715 63.7571 157.353 63.1194C157.991 62.4818 159.025 62.4818 159.662 63.1194C160.3 63.7571 160.3 64.791 159.662 65.4287Z" fill="#1A2E35"/>
<path d="M167.246 65.4287C166.608 66.0664 165.574 66.0664 164.937 65.4287C164.299 64.791 164.299 63.7571 164.937 63.1194C165.574 62.4818 166.608 62.4818 167.246 63.1194C167.884 63.7571 167.884 64.791 167.246 65.4287Z" fill="#1A2E35"/>
<path d="M174.83 65.4287C174.192 66.0664 173.158 66.0664 172.52 65.4287C171.883 64.791 171.883 63.7571 172.52 63.1194C173.158 62.4818 174.192 62.4818 174.83 63.1194C175.468 63.7571 175.468 64.791 174.83 65.4287Z" fill="#1A2E35"/>
<path d="M187.264 108.648H150.247V76.65H187.264V108.648Z" stroke="#1A2E35" stroke-width="1.47067" stroke-miterlimit="10" stroke-linecap="round" stroke-linejoin="round" stroke-dasharray="5.88 5.88"/>
<path d="M235.578 78.8972H192.975V76.65H235.578V78.8972Z" fill="#1A2E35"/>
<path d="M225.655 83.5573H192.975V81.3101H225.655V83.5573Z" fill="#1A2E35"/>
<path d="M241.639 88.2174H192.975V85.9436H241.639V88.2174Z" fill="#1A2E35"/>
<path d="M234.413 92.7445H192.975V90.4707H234.413V92.7445Z" fill="#1A2E35"/>
<path d="M202.461 300.398C202.461 300.398 182.682 306.07 179.921 307.048C177.409 307.936 170.6 310.321 165.492 309.584C164.988 309.508 164.499 309.403 164.032 309.267C158.856 307.725 156.531 306.288 155.855 303.03C155.17 299.765 157.75 297.38 160.233 295.845C162.716 294.311 176.183 292.709 176.183 292.709L179.432 293.664H179.44L202.461 300.398Z" fill="#865DC5"/>
<path d="M165.492 309.583C164.988 309.508 164.499 309.403 164.032 309.267C158.857 307.725 156.532 306.288 155.855 303.031C155.17 299.765 157.75 297.38 160.233 295.845C162.715 294.311 176.182 292.709 176.182 292.709L179.433 293.664C176.49 295.019 165.522 295.771 163.129 297.148C160.737 298.524 159.579 301.12 160.993 304.625C161.745 306.491 163.762 308.296 165.492 309.583Z" fill="white"/>
<path d="M199.485 301.204C199.485 301.204 184.631 305.053 178.741 307.516C172.852 309.979 161.614 311.056 157.611 305.976C153.608 300.896 157.149 296.526 161.152 295.555C165.154 294.584 173.248 293.045 177.668 293.66" stroke="#1A2E35" stroke-width="1.47067" stroke-miterlimit="10" stroke-linecap="round" stroke-linejoin="round"/>
<path d="M165.79 309.313C165.79 309.313 158.232 305.169 160.742 299.361C162.593 295.074 172.676 296.003 177.668 293.66" stroke="#1A2E35" stroke-width="1.47067" stroke-miterlimit="10" stroke-linecap="round" stroke-linejoin="round"/>
<path d="M262.699 310.501C262.496 312.525 261.781 314.466 259.735 315.669C258.373 316.475 256.432 316.956 253.656 316.926C246.719 316.836 233.682 311.878 233.682 311.878L221.472 305.13L227.821 295.078L229.56 292.325L234.05 293.333C234.05 293.333 237.767 295.44 241.506 297.117C245.245 298.795 254.318 299.149 257.515 301.736C260.713 304.317 263.045 307.131 262.699 310.501Z" fill="#865DC5"/>
<path d="M262.699 310.501C262.496 312.525 261.781 314.466 259.735 315.669C260.119 314.097 260.434 311.923 259.388 309.576C258.034 306.514 253.588 303.813 247.75 303.361C241.919 302.91 237.443 300.179 235.103 298.96C233.276 298.012 229.424 295.943 227.821 295.078L229.559 292.325L234.05 293.333C234.05 293.333 237.767 295.44 241.506 297.117C245.245 298.795 254.318 299.149 257.515 301.736C260.713 304.317 263.045 307.131 262.699 310.501Z" fill="white"/>
<path d="M224.178 307.021C232.87 312.001 242.811 315.586 252.756 316.783C254.977 317.051 257.561 317.089 259.05 315.419C259.879 314.488 260.182 313.173 260.075 311.93C259.805 308.796 257.171 306.311 254.28 305.069C251.389 303.826 248.198 303.529 245.128 302.841C242.071 302.156 239.105 301.07 236.327 299.622C234.12 298.47 231.984 297.072 229.549 296.556C227.114 296.04 224.213 296.666 222.914 298.789" stroke="#1A2E35" stroke-width="1.47067" stroke-miterlimit="10" stroke-linecap="round" stroke-linejoin="round"/>
<path d="M258.235 316.27C260.482 315.117 262.327 312.999 262.701 310.5C263.144 307.546 261.461 304.577 259.09 302.758C256.719 300.941 253.758 300.088 250.833 299.48C247.907 298.872 244.916 298.464 242.133 297.376C237.854 295.705 233.635 292.403 229.195 293.581" stroke="#1A2E35" stroke-width="1.47067" stroke-miterlimit="10" stroke-linecap="round" stroke-linejoin="round"/>
<path d="M234.081 249.789C233.366 250.157 236.135 242.484 234.818 240.746C233.501 239.001 229.56 239.174 229.56 239.174L229.898 237.075C229.944 236.841 232.238 225.076 232.238 225.076L233.013 224.15C233.013 224.15 241.047 237.925 242.484 242.778C242.484 242.778 233.727 249.789 234.081 249.789ZM182.141 239.648C180.621 240.723 181.434 244.899 181.434 244.899L178.845 242.619L185.338 226.655L188.107 238.911C188.107 238.911 183.66 238.579 182.141 239.648ZM237.956 201.37L217.297 193.508L217.041 193.41C217.041 193.41 217.116 192.861 217.177 192.063C217.304 190.416 217.372 187.731 216.597 186.82C215.446 185.473 212.181 186.602 208.999 185.142C205.816 183.682 199.925 186.293 199.925 186.293C199.925 186.293 195.675 185.511 193.802 188.58C192.846 191.055 193.177 194.742 193.177 194.742C193.177 194.742 193.042 194.794 192.786 194.885C190.326 195.803 176.934 200.843 174.099 202.867C170.968 205.086 167.508 227.844 166.395 234.524C165.281 241.212 163.303 247.231 164.311 249.533C165.312 251.828 179.703 262.909 187.979 265.768C196.254 268.635 225.617 267.792 225.617 267.792C225.617 267.792 226.098 267.664 226.949 267.393C231.914 265.798 249.533 259.231 258.877 243.741C258.877 243.741 249.827 214.054 237.956 201.37Z" fill="#865DC5"/>
<path d="M198.95 151.577L188.288 162.898C188.288 162.898 186.817 164.197 187.401 167.481C187.986 170.765 189.347 173.586 190.375 173.805C191.403 174.024 192.844 174.026 192.844 174.026C192.844 174.026 195.128 178.978 196.747 180.924C196.747 180.924 197.311 188.566 197.01 190.688C197.01 190.688 200.841 194.035 204.448 194.46C208.057 194.886 213.632 189.357 213.632 189.357L215.014 182.59C215.014 182.59 218.285 177.624 218.508 176.303C218.731 174.981 220.226 175.32 220.96 174.668C221.696 174.016 223.397 171.099 223.677 168.344C223.958 165.589 223.978 162.424 220.777 163.353C218.003 162.608 219.74 156.745 219.74 156.745L214.866 152.445L198.95 151.577Z" fill="white"/>
<g opacity="0.5">
<g opacity="0.5">
<path opacity="0.5" d="M217.296 193.508C217.131 193.945 216.95 194.358 216.747 194.742C214.987 198.06 207.321 204.379 207.321 204.379L205.004 197.254L203.732 204.379C201.174 203.266 193.373 196.502 193.373 196.502C193.373 196.502 193.109 195.871 192.787 194.885C193.042 194.794 193.177 194.742 193.177 194.742C193.177 194.742 192.846 191.055 193.802 188.58C195.675 185.51 199.925 186.293 199.925 186.293C199.925 186.293 205.816 183.683 208.998 185.142C212.181 186.602 215.446 185.474 216.597 186.82C217.748 188.167 217.041 193.41 217.041 193.41L217.296 193.508Z" fill="white"/>
</g>
</g>
<g opacity="0.199997">
<g opacity="0.199997">
<path opacity="0.199997" d="M234.08 249.789C233.366 250.157 236.135 242.484 234.818 240.746C233.501 239.001 229.56 239.174 229.56 239.174L229.898 237.075C229.943 236.841 232.238 225.076 232.238 225.076L233.012 224.15C233.012 224.15 241.047 237.925 242.484 242.778C242.484 242.778 233.727 249.789 234.08 249.789ZM237.956 201.37L217.296 193.508L217.041 193.41C217.041 193.41 217.116 192.861 217.176 192.063L216.747 194.742L213.693 198.894C213.693 198.894 218.859 200.758 223.225 203.096C226.261 204.721 228.005 208.027 227.605 211.447L223.797 244.011L222.24 262.503L226.949 267.393C231.914 265.798 249.533 259.231 258.877 243.741C258.877 243.741 249.826 214.054 237.956 201.37Z" fill="black"/>
</g>
</g>
<g opacity="0.199997">
<g opacity="0.199997">
<path opacity="0.199997" d="M181.433 244.899L178.845 242.619L185.338 226.655L188.107 238.911C188.107 238.911 183.661 238.579 182.14 239.648C180.621 240.723 181.433 244.899 181.433 244.899ZM189.506 240.746L186.293 230.011C186.293 230.011 180.534 210.366 176.584 205.521L177.622 219.337C177.622 219.337 174.233 235.841 171.097 240.746C167.96 245.644 167.282 246.87 171.097 246.87C174.918 246.87 184.187 254.265 184.187 254.265L183.472 248.096L189.506 240.746Z" fill="black"/>
</g>
</g>
<path d="M196.747 180.924C196.747 180.924 197.34 186.712 196.747 189.357" stroke="#1A2E35" stroke-width="1.47067" stroke-miterlimit="10" stroke-linecap="round" stroke-linejoin="round"/>
<path d="M214.222 188.582C214.222 188.582 214.188 185.761 214.866 183.051" stroke="#1A2E35" stroke-width="1.47067" stroke-miterlimit="10" stroke-linecap="round" stroke-linejoin="round"/>
<path d="M215.772 155.893C215.772 155.893 219.275 160.294 219.095 163.616C218.916 166.939 218.646 170.89 218.736 174.752C218.826 178.613 212.54 186.696 209.307 187.414C206.074 188.132 203.29 188.312 201.225 186.246C199.16 184.181 197.093 181.307 194.399 177.626C191.705 173.943 192.334 165.861 192.334 165.861" stroke="#1A2E35" stroke-width="1.47067" stroke-miterlimit="10" stroke-linecap="round" stroke-linejoin="round"/>
<path d="M207.343 168.941C207.129 170.148 207.037 171.376 207.07 172.601C207.097 173.627 207.249 174.736 207.968 175.468C208.355 175.863 208.917 176.179 208.991 176.727C209.057 177.213 208.685 177.654 208.271 177.919C207.858 178.183 207.379 178.347 207.009 178.669" stroke="#1A2E35" stroke-width="1.47067" stroke-miterlimit="10" stroke-linecap="round" stroke-linejoin="round"/>
<path d="M201.781 179.096C201.781 179.096 202.186 181.706 205.687 182.252" stroke="#1A2E35" stroke-width="1.47067" stroke-miterlimit="10" stroke-linecap="round" stroke-linejoin="round"/>
<path d="M202.145 170.931C202.145 171.686 201.818 172.297 201.417 172.297C201.014 172.297 200.688 171.686 200.688 170.931C200.688 170.177 201.014 169.565 201.417 169.565C201.818 169.565 202.145 170.177 202.145 170.931Z" fill="#1A2E35"/>
<path d="M212.586 171.259C212.586 172.014 212.26 172.625 211.858 172.625C211.455 172.625 211.129 172.014 211.129 171.259C211.129 170.505 211.455 169.894 211.858 169.894C212.26 169.894 212.586 170.505 212.586 171.259Z" fill="#1A2E35"/>
<path d="M210.48 167.952C210.48 167.952 213.875 164.557 216.747 168.345" stroke="#1A2E35" stroke-width="2.94133" stroke-miterlimit="10" stroke-linecap="round" stroke-linejoin="round"/>
<path d="M203.298 168.018C203.298 168.018 201.144 165.602 197.748 168.018" stroke="#1A2E35" stroke-width="2.94133" stroke-miterlimit="10" stroke-linecap="round" stroke-linejoin="round"/>
<path d="M197.01 184.105C197.01 184.105 199.089 189.836 203.733 191.461C208.378 193.087 214.544 184.651 214.544 184.651L214.221 183.554C214.221 183.554 210.181 188.804 205.686 187.908C201.191 187.013 196.747 180.924 196.747 180.924L197.01 184.105Z" fill="#1A2E35"/>
<path d="M192.843 173.805C192.843 173.805 190.075 174.783 189.339 172.626C188.603 170.468 186.079 164.79 188.288 162.898C190.496 161.005 192.271 165.396 192.271 165.396" stroke="#1A2E35" stroke-width="1.47067" stroke-miterlimit="10" stroke-linecap="round" stroke-linejoin="round"/>
<path d="M218.731 174.981C218.731 174.981 221.303 175.499 222.041 173.341C222.776 171.184 225.3 165.506 223.092 163.613C220.883 161.721 219.109 166.112 219.109 166.112" stroke="#1A2E35" stroke-width="1.47067" stroke-miterlimit="10" stroke-linecap="round" stroke-linejoin="round"/>
<path d="M192.271 170.931C193.037 170.896 194.296 170.149 194.7 169.496C195.103 168.843 195.274 168.076 195.406 167.319C195.657 165.871 195.785 164.401 195.791 162.931C195.793 162.356 195.778 161.771 195.945 161.221C196.12 160.649 196.482 160.154 196.87 159.699C197.837 158.567 198.999 157.61 199.919 156.439C200.837 155.268 201.512 153.784 201.264 152.317C201.264 152.317 207.542 158.056 216.591 156.281C221.463 155.326 226.139 151.05 225.569 145.677C225.367 143.764 223.962 142.39 222.137 141.935C219.729 141.337 217.565 142.621 215.383 143.443C211.405 144.944 207.513 142.368 203.494 141.935C200.056 141.566 195.838 141.992 194.048 145.409C194.048 145.409 187.875 146.134 185.17 151.205C182.466 156.276 187.607 163.296 187.607 163.296C187.607 163.296 189.675 160.791 192.334 165.861L192.271 170.931Z" fill="#1A2E35"/>
<path d="M216.161 154.597C216.161 154.597 214.565 162.916 218.731 166.944C218.731 166.944 219.642 164.443 220.567 163.833C220.567 163.833 222.885 159.437 219.837 154.597C216.789 149.755 216.161 154.597 216.161 154.597Z" fill="#1A2E35"/>
<g opacity="0.199997">
<g opacity="0.199997">
<path opacity="0.199997" d="M223.793 145.129C223.177 147.422 221.238 149.196 219.039 150.091C213.256 152.447 207.638 149.834 201.848 149.322C197.115 148.904 191.899 153.168 191.569 158.026" stroke="white" stroke-width="1.47067" stroke-miterlimit="10" stroke-linecap="round" stroke-linejoin="round"/>
</g>
</g>
<g opacity="0.199997">
<g opacity="0.199997">
<path opacity="0.199997" d="M187.977 156.745C188.064 152.92 190.591 149.26 194.137 147.823" stroke="white" stroke-width="1.47067" stroke-miterlimit="10" stroke-linecap="round" stroke-linejoin="round"/>
</g>
</g>
<path d="M195.413 188.582C195.413 188.582 199.223 192.78 204.419 194.743C204.419 194.743 211.342 192.736 214.866 187.909" stroke="#1A2E35" stroke-width="1.47067" stroke-miterlimit="10" stroke-linecap="round" stroke-linejoin="round"/>
<path d="M206.053 170.931C206.053 174.315 203.31 177.058 199.927 177.058C196.543 177.058 193.8 174.315 193.8 170.931C193.8 167.548 196.543 164.805 199.927 164.805C203.31 164.805 206.053 167.548 206.053 170.931Z" stroke="#1A2E35" stroke-width="1.47067" stroke-miterlimit="10" stroke-linecap="round" stroke-linejoin="round"/>
<path d="M219.74 170.931C219.74 174.315 216.997 177.058 213.613 177.058C210.23 177.058 207.487 174.315 207.487 170.931C207.487 167.548 210.23 164.805 213.613 164.805C216.997 164.805 219.74 167.548 219.74 170.931Z" stroke="#1A2E35" stroke-width="1.47067" stroke-miterlimit="10" stroke-linecap="round" stroke-linejoin="round"/>
<path d="M196.747 186.297C196.747 186.297 194.884 186.674 193.8 188.582C192.716 190.49 193.37 196.499 193.37 196.499C193.37 196.499 198.967 202.038 203.733 204.376L205.14 196.469L207.322 204.376C207.322 204.376 214.703 199.155 216.747 194.743C216.747 194.743 217.414 189.598 216.747 187.908C216.081 186.219 214.544 186.297 214.544 186.297" stroke="#1A2E35" stroke-width="1.47067" stroke-miterlimit="10" stroke-linecap="round" stroke-linejoin="round"/>
<path d="M187.977 239.176C187.977 239.176 185.792 224.516 182.879 218.535" stroke="#1A2E35" stroke-width="1.47067" stroke-miterlimit="10" stroke-linecap="round" stroke-linejoin="round"/>
<path d="M176.584 205.521C176.584 205.521 179.35 209.398 181.113 213.099" stroke="#1A2E35" stroke-width="1.47067" stroke-miterlimit="10" stroke-linecap="round" stroke-linejoin="round"/>
<path d="M234.081 216.466C234.851 213.545 235.67 210.983 236.487 209.31" stroke="#1A2E35" stroke-width="1.47067" stroke-miterlimit="10" stroke-linecap="round" stroke-linejoin="round"/>
<path d="M229.558 239.176C229.558 239.176 231.136 229.126 233.015 220.843" stroke="#1A2E35" stroke-width="1.47067" stroke-miterlimit="10" stroke-linecap="round" stroke-linejoin="round"/>
<path d="M232.235 225.072C233.739 223.066 235.918 221.575 238.333 220.902" stroke="#1A2E35" stroke-width="1.47067" stroke-miterlimit="10" stroke-linecap="round" stroke-linejoin="round"/>
<path d="M217.043 193.41C217.043 193.41 229.755 198.487 237.959 201.371C237.959 201.371 248.052 210.863 258.874 243.741C258.874 243.741 248.954 260.423 230.093 265.771" stroke="#1A2E35" stroke-width="1.47067" stroke-miterlimit="10" stroke-linecap="round" stroke-linejoin="round"/>
<path d="M233.369 250.386L242.482 242.777C242.482 242.777 247.304 239.113 252.317 241.62" stroke="#1A2E35" stroke-width="1.47067" stroke-miterlimit="10" stroke-linecap="round" stroke-linejoin="round"/>
<path d="M233.016 224.152C233.016 224.152 240.554 235.256 242.482 242.777" stroke="#1A2E35" stroke-width="1.47067" stroke-miterlimit="10" stroke-linecap="round" stroke-linejoin="round"/>
<path d="M181.515 245.32L178.849 242.776C178.849 242.776 174.889 242.085 170.406 245.09" stroke="#1A2E35" stroke-width="1.47067" stroke-miterlimit="10" stroke-linecap="round" stroke-linejoin="round"/>
<path d="M178.849 242.777C178.849 242.777 182.16 231.896 185.428 226.279" stroke="#1A2E35" stroke-width="1.47067" stroke-miterlimit="10" stroke-linecap="round" stroke-linejoin="round"/>
<path d="M193.175 194.743C193.175 194.743 174.889 201.604 173.096 203.601C171.303 205.6 164.49 243.975 164.31 248.366C164.15 252.292 178.392 261.112 185.428 264.83" stroke="#1A2E35" stroke-width="1.47067" stroke-miterlimit="10" stroke-linecap="round" stroke-linejoin="round"/>
<path d="M259.372 188.582H238.536C236.076 188.582 234.081 186.587 234.081 184.127V171.903C234.081 169.443 236.076 167.449 238.536 167.449H259.372C261.832 167.449 263.827 169.443 263.827 171.903V184.127C263.827 186.587 261.832 188.582 259.372 188.582Z" fill="white"/>
<path d="M259.372 188.582H238.536C236.076 188.582 234.081 186.587 234.081 184.127V171.903C234.081 169.443 236.076 167.449 238.536 167.449H259.372C261.832 167.449 263.827 169.443 263.827 171.903V184.127C263.827 186.587 261.832 188.582 259.372 188.582Z" stroke="#1A2E35" stroke-width="1.47067" stroke-miterlimit="10" stroke-linecap="round" stroke-linejoin="round"/>
<path d="M243.678 173.805L237.959 177.395L243.267 182.103" stroke="#1A2E35" stroke-width="1.47067" stroke-miterlimit="10" stroke-linecap="round" stroke-linejoin="round"/>
<path d="M254.101 182.445L259.241 178.064L253.308 174.174" stroke="#1A2E35" stroke-width="1.47067" stroke-miterlimit="10" stroke-linecap="round" stroke-linejoin="round"/>
<path d="M246.459 185.14L250.681 171.901" stroke="#1A2E35" stroke-width="1.47067" stroke-miterlimit="10" stroke-linecap="round" stroke-linejoin="round"/>
<path d="M206.848 207.707C206.848 208.372 206.31 208.91 205.645 208.91C204.981 208.91 204.443 208.372 204.443 207.707C204.443 207.043 204.981 206.505 205.645 206.505C206.31 206.505 206.848 207.043 206.848 207.707Z" fill="#1A2E35"/>
<path d="M228.006 271.966H186.392C185.853 271.966 185.417 271.528 185.417 270.99C185.417 270.451 185.853 270.014 186.392 270.014H228.006C228.545 270.014 228.982 270.451 228.982 270.99C228.982 271.528 228.545 271.966 228.006 271.966Z" fill="#1A2E35"/>
<path d="M229.463 268.731L235.04 242.543C235.409 240.81 234.086 239.175 232.314 239.175H183.693C181.937 239.175 180.619 240.78 180.959 242.502L185.959 267.819C186.212 269.102 187.322 270.035 188.629 270.065L226.673 270.936C228.012 270.967 229.184 270.041 229.463 268.731Z" fill="white"/>
<path d="M229.463 268.731L235.04 242.543C235.409 240.81 234.086 239.175 232.314 239.175H183.693C181.937 239.175 180.619 240.78 180.959 242.502L185.959 267.819C186.212 269.102 187.322 270.035 188.629 270.065L226.673 270.936C228.012 270.967 229.184 270.041 229.463 268.731Z" stroke="#1A2E35" stroke-width="1.47067" stroke-miterlimit="10" stroke-linecap="round" stroke-linejoin="round"/>
<path d="M211.72 254.267C211.72 256.412 209.981 258.149 207.838 258.149C205.694 258.149 203.956 256.412 203.956 254.267C203.956 252.123 205.694 250.386 207.838 250.386C209.981 250.386 211.72 252.123 211.72 254.267Z" fill="#1A2E35"/>
<path d="M219.348 241.661H225.125" stroke="#1A2E35" stroke-width="1.47067" stroke-miterlimit="10" stroke-linecap="round" stroke-linejoin="round"/>
<path d="M191.762 241.661H213.69" stroke="#1A2E35" stroke-width="1.47067" stroke-miterlimit="10" stroke-linecap="round" stroke-linejoin="round"/>
<path d="M229.558 296.513L225.125 308.148C225.125 308.148 213.823 305.298 199.34 302.33C184.197 299.227 168.381 295.21 160.177 280.817C159.177 279.062 158.512 276.988 158.979 275.024C160.163 270.052 166.631 268.703 170.894 268.205C173.569 267.893 176.27 267.789 178.962 267.751C180.335 267.732 184.863 267.013 185.959 267.819C185.959 267.82 188.8 269.91 191.221 270.938C193.642 271.966 228.981 270.014 228.981 270.014C228.981 270.014 230.032 267.796 230.093 265.771C235.649 262.947 248.512 260.556 253.947 261.612C262.494 263.275 267.48 268.26 266.53 273.483C265.58 278.707 246.719 292.715 229.558 296.513Z" fill="#1A2E35"/>
<path d="M229.558 296.513C229.558 296.513 218.809 293.664 210.024 287.729C201.24 281.793 194.377 274.908 182.138 276.332" stroke="white" stroke-width="1.47067" stroke-miterlimit="10" stroke-linecap="round" stroke-linejoin="round"/>
<path d="M208.003 286.329C213.552 284.732 217.624 281.143 222.077 277.697C226.793 274.045 231.781 270.509 237.145 267.795" stroke="white" stroke-width="1.47067" stroke-miterlimit="10" stroke-linecap="round" stroke-linejoin="round"/>
<path d="M206.053 171.901H207.681" stroke="#1A2E35" stroke-width="1.47067" stroke-miterlimit="10" stroke-linecap="round" stroke-linejoin="round"/>
</svg>
