<svg width="427" height="223" viewBox="0 0 427 223" fill="none" xmlns="http://www.w3.org/2000/svg">
<g clip-path="url(#clip0)">
<path opacity="0.1" d="M394.261 176.337C393.786 177.343 393.311 178.336 392.838 179.315C392.1 180.836 391.372 182.328 390.653 183.79C390.333 184.437 390.013 185.073 389.701 185.709C386.175 192.779 382.882 199.033 380.086 204.175C377.548 208.835 373.78 212.74 369.177 215.479C364.573 218.219 359.304 219.694 353.92 219.748L291.735 220.412H291.079L285.748 220.469L281.188 220.517L267.205 220.666H266.639L259.521 220.742H259.303L215.427 221.209L176.263 221.612L171.707 221.66L143.413 221.962H143.38L125.03 222.155H124.834L66.8107 222.77L49.453 222.956C45.7488 222.997 42.0602 222.478 38.5168 221.418C32.3504 219.59 26.8086 216.147 22.4876 211.459C15.0328 203.399 9.59956 193.995 5.95006 183.79C5.42245 182.317 4.93038 180.825 4.47385 179.315C-8.15999 137.405 7.24174 83.3336 34.9616 47.1494C36.1234 45.6364 37.3043 44.1609 38.5044 42.723L38.5331 42.6908C47.0582 32.4215 56.6166 23.8422 66.7983 17.7418C84.8408 6.91311 104.831 3.86289 124.493 12.9532C141.129 20.6471 156.662 24.2647 171.719 25.2466C173.241 25.3432 174.762 25.4156 176.275 25.4599C210.814 26.5263 243.184 14.3133 281.196 6.43022C282.71 6.11635 284.227 5.8065 285.756 5.51274C312.873 0.217112 342.955 -2.57557 378.728 3.2955C382.445 3.89133 386.112 4.75206 389.701 5.87088C391.279 6.36986 392.799 6.9064 394.261 7.4805C411.336 14.2972 420.648 26.8924 424.605 42.6747C424.98 44.1395 425.304 45.6297 425.577 47.1454C432.593 85.1082 412.045 138.958 394.261 176.337Z" fill="#212121"/>
<g opacity="0.1">
<path opacity="0.1" d="M66.7982 17.742V222.815L49.4405 223C45.7363 223.041 42.0478 222.523 38.5043 221.463V42.691H38.533C47.0581 32.4096 56.6165 23.8303 66.7982 17.742Z" fill="#212121"/>
<path opacity="0.1" d="M425.598 47.1496H34.9614C36.1232 45.6366 37.3042 44.1611 38.5043 42.7232V42.691H424.626C425 44.1477 425.324 45.6339 425.598 47.1496Z" fill="#212121"/>
<path opacity="0.1" d="M394.261 7.48471V179.311H392.838C392.1 180.832 391.372 182.324 390.653 183.786C390.333 184.434 390.013 185.069 389.701 185.705V5.859C391.279 6.35798 392.798 6.89988 394.261 7.48471Z" fill="#212121"/>
<path opacity="0.1" d="M285.756 5.50085V220.485L281.196 220.533V6.41833C282.709 6.10446 284.227 5.79461 285.756 5.50085Z" fill="#212121"/>
<path opacity="0.1" d="M176.275 25.448V221.652L171.719 221.7V25.2347C173.241 25.3313 174.762 25.3876 176.275 25.448Z" fill="#212121"/>
<path opacity="0.1" d="M392.838 179.315C392.1 180.836 391.372 182.328 390.653 183.79H5.94991C5.42231 182.317 4.93024 180.825 4.47371 179.315H392.838Z" fill="#212121"/>
</g>
<path d="M94.559 106.971H86.768V130.174H94.559V106.971Z" fill="#3F3D56"/>
<path d="M304.233 105.764H296.442V130.31H304.233V105.764Z" fill="#3F3D56"/>
<path d="M353.92 214.743V219.974L291.624 220.537L290.96 220.549L267.283 220.763L266.717 220.771L259.521 220.831H259.307L215.44 221.229L143.43 221.885H143.368L125.059 222.054L124.862 222.058L43.507 222.791V216.755L62.6361 205.487L101.017 205.174L101.838 205.17L102.108 205.165L102.928 205.153L121.356 205.005L122.18 205L122.443 204.996L123.263 204.992L129.172 204.944L129.328 204.94L143.905 204.819H144.024L257.774 203.878L260.558 203.858H260.837L262.961 203.838L278.4 203.713L279.22 203.701L279.978 203.693H280.372L285.174 203.656L286.125 203.644L287.4 203.636L291.398 203.6L297.742 203.548L298.562 203.54L299.989 203.532H300.256L330.891 203.274L353.92 214.743Z" fill="#65617D"/>
<path opacity="0.2" d="M353.92 214.743V219.974L291.624 220.537L290.96 220.549L267.283 220.763L266.717 220.771L259.521 220.831H259.307L215.44 221.229L143.43 221.885H143.368L125.059 222.054L124.862 222.058L43.507 222.791V216.755L62.6361 205.487L101.017 205.174L101.838 205.17L102.108 205.165L102.928 205.153L121.356 205.005L122.18 205L122.443 204.996L123.263 204.992L129.172 204.944L129.328 204.94L143.905 204.819H144.024L257.774 203.878L260.558 203.858H260.837L262.961 203.838L278.4 203.713L279.22 203.701L279.978 203.693H280.372L285.174 203.656L286.125 203.644L287.4 203.636L291.398 203.6L297.742 203.548L298.562 203.54L299.989 203.532H300.256L330.891 203.274L353.92 214.743Z" fill="#212121"/>
<path d="M121.418 194.627V204.481C121.418 204.948 121.283 205.405 121.029 205.8C120.775 206.195 120.412 206.51 119.983 206.711C119.663 206.863 119.313 206.945 118.957 206.952L104.646 207.25C104.264 207.259 103.885 207.18 103.539 207.021C103.102 206.824 102.732 206.508 102.472 206.111C102.213 205.713 102.075 205.251 102.075 204.779V194.627H121.418Z" fill="#3F3D56"/>
<path opacity="0.1" d="M121.418 194.627V204.481C121.418 204.948 121.283 205.405 121.029 205.8C120.775 206.195 120.412 206.51 119.983 206.711C119.663 206.863 119.313 206.945 118.957 206.952L104.646 207.25C104.264 207.259 103.885 207.18 103.539 207.021C103.102 206.824 102.732 206.508 102.472 206.111C102.213 205.713 102.075 205.251 102.075 204.779V194.627H121.418Z" fill="#212121"/>
<path d="M122.238 194.627V204.481C122.238 204.948 122.103 205.405 121.849 205.8C121.595 206.195 121.232 206.51 120.803 206.711C120.483 206.863 120.133 206.945 119.778 206.952L105.467 207.25C105.084 207.259 104.705 207.18 104.359 207.021C103.922 206.824 103.552 206.508 103.292 206.111C103.033 205.713 102.895 205.251 102.895 204.779V194.627H122.238Z" fill="#3F3D56"/>
<path d="M298.562 194.627H279.22V207.302H298.562V194.627Z" fill="#3F3D56"/>
<path opacity="0.1" d="M298.562 194.627H279.22V207.302H298.562V194.627Z" fill="#212121"/>
<path d="M297.742 194.627H278.4V207.302H297.742V194.627Z" fill="#3F3D56"/>
<path opacity="0.1" d="M94.559 106.967V109.273L86.768 109.076V106.967H94.559Z" fill="#212121"/>
<path d="M145.841 42.0109L136.479 108.005C136.42 108.427 136.204 108.812 135.874 109.087C135.543 109.363 135.121 109.509 134.687 109.498L59.7288 107.591L58.3059 107.554C58.0582 107.549 57.8145 107.492 57.5907 107.387C57.3668 107.283 57.168 107.133 57.007 106.948C56.8461 106.764 56.7266 106.547 56.6565 106.314C56.5864 106.081 56.5672 105.836 56.6001 105.595L67.1098 36.5101C67.1776 36.0822 67.4064 35.6947 67.7511 35.4243C68.0957 35.1538 68.5312 35.0201 68.9715 35.0494L144.2 40.0472C144.443 40.061 144.68 40.124 144.897 40.2323C145.114 40.3406 145.305 40.4917 145.459 40.6763C145.613 40.8608 145.727 41.0747 145.792 41.3044C145.858 41.5341 145.875 41.7747 145.841 42.0109Z" fill="#65617D"/>
<path d="M72.1412 39.9023L64.2148 100.798L133.104 102.943L141.576 44.192L72.1412 39.9023Z" fill="#212121"/>
<path d="M239.448 38.9607H159.893C158.686 38.9607 157.708 39.921 157.708 41.1055V106.565C157.708 107.749 158.686 108.709 159.893 108.709H239.448C240.655 108.709 241.634 107.749 241.634 106.565V41.1055C241.634 39.921 240.655 38.9607 239.448 38.9607Z" fill="#65617D"/>
<path d="M237.939 43.6568H161.669V101.736H237.939V43.6568Z" fill="#212121"/>
<path opacity="0.1" d="M304.233 105.76V107.285L296.442 107.442V105.76H304.233Z" fill="#212121"/>
<path d="M339.387 104.472C339.398 104.639 339.375 104.806 339.319 104.964C339.262 105.121 339.174 105.266 339.059 105.389C338.944 105.513 338.805 105.612 338.65 105.681C338.495 105.75 338.327 105.788 338.157 105.792L261.395 107.349C261.076 107.356 260.766 107.244 260.528 107.035C260.29 106.827 260.141 106.538 260.111 106.227L253.513 38.9124C253.497 38.7454 253.515 38.5769 253.567 38.4171C253.62 38.2573 253.704 38.1095 253.816 37.9827C253.928 37.8559 254.065 37.7528 254.219 37.6795C254.373 37.6062 254.54 37.5643 254.711 37.5563L330.891 33.8381L331.711 33.7979C332.037 33.781 332.357 33.8891 332.603 34.0993C332.85 34.3095 333.003 34.6055 333.031 34.9246L339.387 104.472Z" fill="#65617D"/>
<path d="M257.897 41.5119L327.471 38.1559L333.347 99.3212L264.322 100.931L257.897 41.5119Z" fill="#212121"/>
<path opacity="0.1" d="M339.387 104.472C339.398 104.639 339.375 104.806 339.319 104.964C339.262 105.121 339.174 105.266 339.059 105.389C338.944 105.513 338.805 105.612 338.65 105.681C338.495 105.75 338.327 105.788 338.157 105.792L330.891 33.8381L331.711 33.7979C332.037 33.781 332.357 33.8891 332.603 34.0993C332.85 34.3095 333.003 34.6055 333.031 34.9246L339.387 104.472Z" fill="#212121"/>
<path opacity="0.1" d="M68.9838 35.0453L59.7288 107.591L58.3059 107.554C58.0582 107.549 57.8145 107.492 57.5907 107.387C57.3668 107.283 57.168 107.133 57.007 106.948C56.8461 106.764 56.7266 106.547 56.6565 106.314C56.5864 106.081 56.5672 105.836 56.6001 105.595L67.1099 36.5101C67.1768 36.0792 67.407 35.689 67.7544 35.4174C68.1018 35.1459 68.5409 35.013 68.9838 35.0453Z" fill="#212121"/>
<path opacity="0.1" d="M94.559 123.3H86.768V130.174H94.559V123.3Z" fill="#212121"/>
<path opacity="0.1" d="M122.238 194.622V196.622L102.895 197.129V194.622H122.238Z" fill="#212121"/>
<path d="M156.375 125.695V193.379C156.37 193.792 156.203 194.188 155.91 194.484C155.616 194.779 155.217 194.953 154.796 194.969L76.209 197.021H76.1885C75.7606 197.016 75.3517 196.846 75.0491 196.55C74.7464 196.253 74.5741 195.851 74.5688 195.431V125.695C74.5741 125.275 74.7464 124.874 75.0491 124.577C75.3517 124.28 75.7606 124.111 76.1885 124.105H154.755C155.183 124.111 155.592 124.28 155.895 124.577C156.197 124.874 156.37 125.275 156.375 125.695Z" fill="#65617D"/>
<path opacity="0.1" d="M76.209 124.105V197.021H76.1885C75.7606 197.016 75.3517 196.846 75.0491 196.55C74.7464 196.253 74.5741 195.851 74.5688 195.431V125.695C74.5741 125.275 74.7464 124.874 75.0491 124.577C75.3517 124.28 75.7606 124.111 76.1885 124.105H76.209Z" fill="#212121"/>
<path d="M79.797 128.427H152.582V188.083L79.797 189.693V128.427Z" fill="#D4DFEC"/>
<path opacity="0.1" d="M304.233 123.3H296.442V130.31H304.233V123.3Z" fill="#212121"/>
<path opacity="0.1" d="M297.742 194.622V197.202L278.4 196.695V194.622H297.742Z" fill="#212121"/>
<path d="M323.268 125.695V195.431C323.263 195.855 323.087 196.259 322.78 196.557C322.473 196.854 322.059 197.021 321.628 197.021L243.024 194.969C242.603 194.953 242.205 194.779 241.911 194.484C241.617 194.188 241.45 193.792 241.445 193.379V125.695C241.451 125.275 241.623 124.874 241.926 124.577C242.228 124.28 242.637 124.111 243.065 124.105H321.632C322.063 124.106 322.476 124.274 322.782 124.571C323.088 124.868 323.263 125.272 323.268 125.695Z" fill="#65617D"/>
<path opacity="0.1" d="M323.268 125.695V195.431C323.263 195.855 323.087 196.259 322.78 196.557C322.473 196.854 322.059 197.021 321.628 197.021V124.105C322.059 124.105 322.473 124.272 322.78 124.57C323.087 124.867 323.263 125.271 323.268 125.695Z" fill="#212121"/>
<path d="M318.04 128.427H245.255V188.083L318.04 189.693V128.427Z" fill="#D4DFEC"/>
<path d="M239.411 125.695V193.379C239.407 193.792 239.24 194.188 238.946 194.484C238.652 194.779 238.254 194.953 237.833 194.969L159.245 197.021C158.814 197.021 158.4 196.854 158.093 196.557C157.786 196.259 157.611 195.855 157.605 195.431V125.695C157.611 125.275 157.783 124.874 158.086 124.577C158.388 124.28 158.797 124.111 159.225 124.105H237.792C238.22 124.111 238.629 124.28 238.931 124.577C239.234 124.874 239.406 125.275 239.411 125.695Z" fill="#65617D"/>
<path d="M162.833 128.427H235.618V188.083L162.833 189.693V128.427Z" fill="#D4DFEC"/>
<path opacity="0.1" d="M353.92 214.743V219.974L291.624 220.537L290.96 220.549L267.283 220.763L266.717 220.771L259.521 220.831H259.307L215.44 221.229L143.43 221.885H143.368L125.059 222.054L124.862 222.058L43.507 222.791V216.755L126.548 216.22H126.744L143.553 216.107H143.63L259.709 215.354H259.828L259.898 215.35H260.091L262.055 215.338H262.654L293.199 215.137L295.003 215.129L295.405 215.125L353.92 214.743Z" fill="#212121"/>
<path d="M199.804 130.174C211.429 130.174 220.852 120.926 220.852 109.518C220.852 98.1105 211.429 88.8628 199.804 88.8628C188.18 88.8628 178.756 98.1105 178.756 109.518C178.756 120.926 188.18 130.174 199.804 130.174Z" fill="#FBBEBE"/>
<path d="M220.856 151.771C220.856 151.771 180.056 156.599 183.951 151.771C185.362 150.024 185.751 144.849 185.674 138.954C185.649 137.163 185.583 135.308 185.489 133.461C185.038 124.608 183.951 115.957 183.951 115.957C183.951 115.957 219.626 99.4581 215.526 112.536C213.885 117.82 214.423 125.24 215.669 132.206C216.034 134.238 216.456 136.23 216.899 138.121C217.98 142.734 219.301 147.29 220.856 151.771Z" fill="#FBBEBE"/>
<path opacity="0.1" d="M220.856 151.771C220.856 151.771 180.056 156.599 183.951 151.771C185.362 150.024 185.751 144.849 185.674 138.954C191.894 136.346 199.808 138.29 199.808 138.29C208.141 136.66 213.484 136.978 216.899 138.121C217.98 142.734 219.301 147.29 220.856 151.771Z" fill="#212121"/>
<path d="M143.413 222.34V222.002L215.427 221.233L259.303 220.831H259.426L259.381 221.427L259.443 220.831H259.521V220.763L260.082 215.35L260.296 213.302L260.361 212.662L260.419 212.127L262.953 203.834L265.487 195.552L267.619 188.578L270.875 177.923C270.875 177.923 269.03 173.698 268.005 172.49C266.98 171.283 265.954 163.034 265.954 163.034C265.954 163.034 257.204 154.853 253.378 153.911C251.775 153.509 248.609 152.974 245.247 152.302C243.988 152.052 242.696 151.787 241.454 151.497C240.752 151.34 240.063 151.175 239.403 151.01C238.118 150.695 236.852 150.311 235.61 149.859C234.959 149.627 234.339 149.318 233.765 148.938C230.751 146.769 223.198 146.523 222.907 146.523C222.906 146.514 222.906 146.504 222.907 146.495V146.459C222.917 146.29 222.917 146.121 222.907 145.952C222.907 145.791 222.907 145.602 222.87 145.388C222.87 145.324 222.87 145.256 222.841 145.187C222.821 145.042 222.796 144.889 222.759 144.729C222.747 144.657 222.73 144.585 222.71 144.515C222.591 144.03 222.419 143.559 222.197 143.111C222.169 143.046 222.132 142.978 222.099 142.914C221.898 142.542 221.665 142.188 221.402 141.855C221.348 141.787 221.291 141.714 221.23 141.646C220.894 141.257 220.52 140.902 220.114 140.584C220.004 140.499 219.889 140.411 219.77 140.33C219.703 140.277 219.634 140.229 219.561 140.185L219.196 139.952L218.855 139.759C218.556 139.598 218.24 139.441 217.896 139.292C217.789 139.244 217.674 139.199 217.56 139.155C217.445 139.111 217.264 139.043 217.113 138.986H217.088L216.78 138.865C216.547 138.789 216.309 138.721 216.059 138.652L215.677 138.556L215.267 138.463L214.857 138.379C214.447 138.298 214.008 138.226 213.549 138.169L213.082 138.113L212.602 138.065L212.106 138.024L211.401 137.984L210.58 137.956C206.963 137.956 203.357 138.332 199.821 139.079C197.364 138.542 194.848 138.315 192.333 138.403H191.976L191.566 138.427H191.304L190.775 138.475C190.598 138.475 190.418 138.511 190.242 138.536C190.065 138.56 189.881 138.58 189.704 138.608L189.434 138.652C189.167 138.696 188.897 138.745 188.614 138.801C188.523 138.817 188.433 138.837 188.343 138.861C187.986 138.938 187.63 139.03 187.277 139.135C187.101 139.183 186.924 139.24 186.748 139.3C186.658 139.324 186.572 139.356 186.485 139.389L186.223 139.481L185.965 139.582L185.657 139.702C185.501 139.767 185.35 139.835 185.198 139.908C185.112 139.944 185.026 139.984 184.944 140.028C184.862 140.073 184.776 140.109 184.698 140.153C183.77 140.623 182.914 141.216 182.151 141.916L181.942 142.113L181.737 142.318C181.667 142.387 181.602 142.459 181.536 142.531C181.269 142.818 181.02 143.12 180.79 143.437C180.724 143.521 180.663 143.606 180.601 143.694C180.341 144.071 180.105 144.463 179.896 144.869C179.843 144.966 179.793 145.067 179.744 145.163C179.41 145.843 179.135 146.55 178.924 147.276C178.847 147.544 178.778 147.812 178.715 148.081C178.715 148.081 170.034 151.839 162.833 154.559C160.918 155.284 159.114 155.939 157.605 156.434C157.166 156.579 156.756 156.712 156.375 156.837C155.548 157.13 154.687 157.325 153.812 157.416C153.4 157.423 152.989 157.461 152.582 157.529C149.273 158.056 143.602 160.346 142.983 162.644C142.932 162.827 142.918 163.018 142.942 163.207C142.942 163.207 142.942 163.235 142.942 163.251C143.352 166.068 140.481 165.666 140.481 165.666C140.481 165.666 139.456 173.11 138.021 175.122C136.983 176.571 136.274 179.802 136.184 182.241C136.132 183 136.193 183.763 136.364 184.506C136.364 184.526 136.364 184.546 136.364 184.562C136.528 185.102 136.135 186.574 135.466 188.462C134.74 190.534 133.683 193.11 132.666 195.54C131.132 199.21 129.689 202.542 129.598 203.274C129.561 203.6 129.455 204.184 129.307 204.936C128.709 208.002 127.38 213.841 126.724 216.203C126.236 217.966 125.526 220.38 125.039 222.038C125.039 222.087 125.01 222.135 124.998 222.179L143.38 222.002V222.34H143.438H143.413Z" fill="#212121"/>
<path opacity="0.1" d="M150.122 174.909C150.122 174.909 173.495 186.78 181.901 185.371L150.122 174.909Z" fill="#212121"/>
<path opacity="0.1" d="M197.688 170.08C197.688 170.08 220.446 177.323 228.032 178.329C235.618 179.335 197.688 170.08 197.688 170.08Z" fill="#212121"/>
<path opacity="0.1" d="M222.931 146.773C211.04 148.922 188.651 148.459 178.973 148.133C182.52 135.658 199.816 139.9 199.816 139.9C221.225 135.707 222.866 144.407 222.931 146.773Z" fill="#212121"/>
<path d="M222.931 145.968C211.04 148.117 188.651 147.654 178.973 147.328C182.52 134.854 199.816 139.095 199.816 139.095C221.225 134.902 222.866 143.602 222.931 145.968Z" fill="#212121"/>
<path d="M286.055 200.964C286.055 200.964 300.063 198.852 300.338 204.888C300.612 210.924 293.194 215.141 293.194 215.141L286.055 200.964Z" fill="#FBBEBE"/>
<path opacity="0.1" d="M215.669 132.206C215.067 132.47 214.451 132.704 213.824 132.906C209.404 134.403 204.946 135.912 200.292 136.459C195.638 137.006 190.754 136.523 186.695 134.246C186.268 134.01 185.858 133.748 185.464 133.461C185.013 124.608 183.927 115.957 183.927 115.957C183.927 115.957 219.602 99.4581 215.501 112.536C213.869 117.82 214.423 125.24 215.669 132.206Z" fill="#212121"/>
<path d="M194.031 77.2333C193.445 77.385 192.832 77.4003 192.24 77.2781C191.647 77.1558 191.092 76.8993 190.619 76.5291L191.472 77.6921C190.969 77.749 190.46 77.6975 189.98 77.5411C189.499 77.3847 189.06 77.1272 188.692 76.7867C188.614 77.8277 188.658 78.874 188.823 79.9053C187.412 79.9721 186.022 79.5442 184.903 78.6981C184.881 79.0611 184.973 79.422 185.166 79.7321C185.36 80.0422 185.646 80.2866 185.985 80.4324C184.568 80.2662 183.137 80.6119 181.96 81.4049C180.783 82.1979 179.94 83.3841 179.588 84.7422L181.729 84.9353C180.047 85.2879 178.537 86.1919 177.448 87.4986C176.792 88.3035 176.292 89.3336 176.579 90.3155C176.866 91.2973 178.252 91.9251 179.006 91.2249C177.933 92.482 177.153 93.9543 176.721 95.5385C176.289 97.1227 176.215 98.7805 176.505 100.396C176.699 101.084 176.763 101.801 176.693 102.512C176.558 103.176 176.132 103.752 175.918 104.4C175.508 105.575 175.898 106.85 176.263 108.021L178.186 114.226C178.883 116.468 179.576 118.713 180.486 120.882C181.131 122.253 181.679 123.666 182.127 125.111C182.643 127.059 182.664 129.192 183.767 130.894C184.523 131.965 185.533 132.839 186.711 133.441C190.766 135.719 195.667 136.202 200.309 135.654C204.95 135.107 209.404 133.598 213.82 132.101C214.801 131.811 215.743 131.406 216.625 130.894C219.68 128.93 220.36 124.914 220.93 121.377C221.566 117.433 222.415 113.498 223.92 109.788C224.813 107.579 225.97 105.337 225.773 102.971C225.523 99.8283 222.989 97.2811 222.361 94.1906C222.151 93.1576 222.161 92.0931 222.39 91.0639C222.585 90.4508 222.694 89.8145 222.714 89.1726C222.644 87.8769 221.562 86.8789 220.545 86.046C218.339 84.2378 216.062 82.529 213.713 80.9193C213.594 80.1145 214.71 79.7685 215.214 79.1327C215.928 78.2353 215.189 76.8108 214.107 76.3923C213.024 75.9738 211.811 76.2474 210.683 76.5251C210.756 75.9587 210.642 75.3841 210.356 74.8868C210.07 74.3896 209.628 73.9962 209.096 73.7652C208.564 73.5341 207.97 73.4778 207.402 73.6046C206.835 73.7314 206.325 74.0345 205.947 74.4688C205.647 73.7949 205.169 73.2124 204.562 72.782C203.954 72.3516 203.24 72.0892 202.494 72.0222C199.775 71.813 199.722 73.8531 197.983 74.9758C196.245 76.0986 194.81 74.6177 193.473 73.5393C193.227 74.1489 193.149 74.8112 193.247 75.4596C193.345 76.1081 193.615 76.7198 194.031 77.2333Z" fill="#3F3D56"/>
<path d="M296.442 213.036C296.442 213.036 296.077 213.89 295.405 215.125C294.387 217.026 293.149 218.804 291.714 220.425L291.603 220.541H290.939L267.263 220.755H266.697L266.627 220.674L262.034 215.326L260.304 213.31L260.234 213.226L260.087 213.057L260.005 212.96L259.898 212.835L256.531 208.916L257.762 203.886L259.857 195.411L259.91 195.206L260.32 193.596L260.611 192.389L261.587 188.454L264.933 174.913L270.879 177.931L277.149 188.796L280.516 194.631H282.361C282.709 194.631 283.509 195.29 284.313 196.051C284.6 196.321 284.887 196.606 285.133 196.856C285.863 197.596 286.441 198.232 286.441 198.232C286.441 198.232 289.43 198.296 290.234 200.606C290.275 200.718 290.31 200.832 290.336 200.948C290.603 201.856 290.95 202.739 291.374 203.588C291.903 204.719 292.567 206.002 293.24 207.286C294.49 209.64 295.761 211.882 296.229 212.694L296.286 212.795L296.442 213.036Z" fill="#212121"/>
<path opacity="0.1" d="M261.218 194.868L261.177 195.443V195.484L261.108 196.409L260.562 203.858L259.902 212.831L259.713 215.358L259.303 220.767V220.835L215.427 221.237L143.425 222.002V222.34H143.368V222.002V221.889L143.553 216.111L143.905 204.819L144.209 195.246L144.237 194.293C144.255 193.717 144.393 193.151 144.641 192.629C144.889 192.107 145.243 191.641 145.682 191.258C146.12 190.875 146.633 190.583 147.19 190.402C147.747 190.22 148.335 190.151 148.92 190.2C150.856 190.361 153.369 190.558 156.375 190.767L157.605 190.856C174.963 192.039 207.042 193.568 239.411 191.661C240.092 191.625 240.777 191.584 241.462 191.536C246.481 191.226 251.496 190.828 256.462 190.329C257.089 190.264 257.724 190.336 258.321 190.538C258.917 190.74 259.461 191.068 259.915 191.499C260.368 191.93 260.72 192.453 260.945 193.031C261.17 193.61 261.264 194.23 261.218 194.848V194.868Z" fill="#212121"/>
<path d="M143.413 222.34V222.002L215.427 221.233L259.303 220.831H259.426V220.763L259.836 215.354L260.013 212.94L260.685 203.842L261.214 196.639V196.461C261.239 196.13 261.223 195.796 261.169 195.468C261.171 195.454 261.171 195.441 261.169 195.427C261.056 194.748 260.775 194.107 260.349 193.56C259.897 192.992 259.306 192.546 258.63 192.264C257.954 191.983 257.216 191.875 256.486 191.951C251.52 192.449 246.505 192.848 241.486 193.158C240.802 193.206 240.117 193.246 239.436 193.282C207.066 195.17 174.987 193.641 157.63 192.478L156.4 192.389C153.394 192.18 150.88 191.987 148.945 191.822C147.88 191.734 146.82 192.036 145.969 192.669C145.117 193.303 144.536 194.224 144.336 195.254C144.294 195.472 144.27 195.693 144.262 195.914L143.983 204.831L143.602 216.127L143.421 221.905V222.018V222.356L143.413 222.34Z" fill="#3F3D56"/>
<path opacity="0.1" d="M261.341 197.689L260.837 203.858L260.087 213.053L259.898 215.354L259.488 220.509L259.463 220.767V220.835L259.402 221.431L259.447 220.835H259.328L215.452 221.237L143.425 222.002V221.889L143.626 216.111L144.036 204.819L144.299 197.315C144.312 196.888 144.433 196.471 144.653 196.102C144.872 195.733 145.181 195.423 145.554 195.202C146.018 194.923 146.561 194.796 147.104 194.84C147.965 194.908 149.023 194.989 150.257 195.077C152.262 195.222 154.735 195.391 157.613 195.568C162.944 195.898 169.632 196.252 177.296 196.542C198.619 197.347 227.405 197.616 254.748 195.266C255.978 195.162 257.249 195.045 258.491 194.928C258.983 194.88 259.479 194.972 259.918 195.194C260.043 195.255 260.161 195.328 260.271 195.411C260.628 195.665 260.911 196.006 261.091 196.401C261.133 196.48 261.167 196.562 261.194 196.647C261.317 196.98 261.367 197.335 261.341 197.689Z" fill="#212121"/>
<path opacity="0.1" d="M122.238 203.198V204.481C122.238 204.948 122.103 205.405 121.849 205.8C121.595 206.195 121.232 206.51 120.803 206.711L104.359 207.021C103.922 206.824 103.552 206.508 103.292 206.111C103.033 205.713 102.895 205.251 102.895 204.779V203.572L122.238 203.198Z" fill="#212121"/>
<path d="M122.443 207.467L101.017 207.87V204.381L122.443 203.978V207.467Z" fill="#3F3D56"/>
<path opacity="0.1" d="M122.443 207.467L101.017 207.87V204.381L122.443 203.978V207.467Z" fill="#212121"/>
<path d="M123.263 207.467L101.838 207.87V204.381L123.263 203.978V207.467Z" fill="#3F3D56"/>
<g opacity="0.1">
<path opacity="0.1" d="M194.199 75.9134C193.798 75.4026 193.532 74.8028 193.424 74.167C193.325 74.7885 193.384 75.4244 193.596 76.0181C193.799 75.9996 194.001 75.9646 194.199 75.9134Z" fill="#212121"/>
<path opacity="0.1" d="M188.991 78.5854C188.914 78.0921 188.863 77.5951 188.839 77.0965C188.839 77.5915 188.839 78.0904 188.839 78.5894L188.991 78.5854Z" fill="#212121"/>
<path opacity="0.1" d="M222.41 92.0136C222.433 91.6551 222.483 91.2987 222.558 90.9472C222.752 90.3352 222.862 89.7005 222.886 89.06C222.877 88.9162 222.855 88.7735 222.821 88.6334C222.751 89.0036 222.64 89.3738 222.558 89.74C222.394 90.4865 222.345 91.2528 222.41 92.0136Z" fill="#212121"/>
<path opacity="0.1" d="M213.881 79.5793L214.328 79.8972C214.705 79.6298 215.058 79.3309 215.382 79.0039C215.536 78.7945 215.632 78.549 215.659 78.2919C215.687 78.0349 215.645 77.7753 215.538 77.5392C215.497 77.631 215.445 77.7175 215.382 77.7967C214.878 78.4325 213.762 78.7826 213.881 79.5793Z" fill="#212121"/>
<path opacity="0.1" d="M180.187 83.4505C180.037 83.7439 179.918 84.0513 179.83 84.3679C180.472 84.0166 181.163 83.7603 181.881 83.6074L180.187 83.4505Z" fill="#212121"/>
<path opacity="0.1" d="M185.842 79.0723C185.572 78.9267 185.315 78.7612 185.071 78.5773C185.06 78.7365 185.073 78.8964 185.108 79.0522C185.353 79.0407 185.598 79.0475 185.842 79.0723Z" fill="#212121"/>
<path opacity="0.1" d="M225.933 102.782C225.765 104.734 224.838 106.613 224.088 108.464C222.583 112.174 221.734 116.11 221.098 120.057C220.528 123.594 219.868 127.61 216.793 129.57C215.914 130.085 214.973 130.491 213.992 130.777C209.572 132.278 205.114 133.783 200.46 134.33C195.806 134.878 190.922 134.399 186.863 132.121C185.686 131.518 184.675 130.644 183.919 129.574C182.824 127.872 182.803 125.739 182.278 123.791C181.831 122.345 181.283 120.931 180.638 119.558C179.732 117.393 179.035 115.132 178.342 112.906C177.699 110.838 177.058 108.768 176.419 106.697C176.208 106.074 176.052 105.435 175.951 104.786C175.791 105.816 176.103 106.894 176.419 107.905C177.058 109.978 177.699 112.048 178.342 114.114C179.035 116.355 179.732 118.6 180.638 120.765C181.283 122.138 181.831 123.552 182.278 124.999C182.795 126.946 182.815 129.079 183.919 130.781C184.675 131.852 185.686 132.726 186.863 133.328C190.922 135.606 195.818 136.085 200.46 135.538C205.102 134.99 209.555 133.485 213.992 131.984C214.973 131.698 215.914 131.292 216.793 130.777C219.848 128.817 220.528 124.801 221.098 121.264C221.734 117.317 222.583 113.381 224.088 109.671C224.982 107.466 226.138 105.225 225.941 102.854C225.941 102.83 225.933 102.806 225.933 102.782Z" fill="#212121"/>
<path opacity="0.1" d="M176.853 101.225C176.853 101.225 176.853 101.196 176.853 101.18C176.927 100.471 176.863 99.7539 176.665 99.0677C176.583 98.6262 176.529 98.1799 176.505 97.7318C176.458 98.5827 176.511 99.4362 176.665 100.275C176.73 100.589 176.804 100.907 176.853 101.225Z" fill="#212121"/>
<path opacity="0.1" d="M178.104 91.3818C178.419 90.8619 178.777 90.368 179.174 89.905C178.424 90.6092 177.038 89.9815 176.747 89.0036C176.639 89.3991 176.639 89.8153 176.747 90.2108C176.848 90.5061 177.026 90.77 177.265 90.9756C177.503 91.1812 177.793 91.3214 178.104 91.3818Z" fill="#212121"/>
</g>
<path opacity="0.1" d="M280.52 194.627C280.52 194.627 281.819 199.254 280.52 203.278C279.22 207.302 280.52 194.627 280.52 194.627Z" fill="#212121"/>
<path opacity="0.1" d="M286.055 199.347C286.055 199.347 286.601 205.222 285.371 206.264C284.14 207.306 286.055 199.347 286.055 199.347Z" fill="#212121"/>
<path d="M81.5971 137.968L123.263 137.566" stroke="#212121" stroke-width="2" stroke-miterlimit="10"/>
<path d="M81.5971 142.986L123.263 142.588" stroke="#212121" stroke-width="2" stroke-miterlimit="10"/>
<path d="M81.5971 148.008L123.263 147.606" stroke="#212121" stroke-width="2" stroke-miterlimit="10"/>
</g>
<defs>
<clipPath id="clip0">
<rect width="427" height="223" fill="white"/>
</clipPath>
</defs>
</svg>
